<svg version="1.1" id="Layer_1" xmlns="http://www.w3.org/2000/svg" xmlns:xlink="http://www.w3.org/1999/xlink" x="0px" y="0px"
	 width="100%" viewBox="0 0 308 172" enable-background="new 0 0 308 172" xml:space="preserve">
<path fill="#000000" opacity="1.000000" stroke="none" 
	d="
M309.000000,81.000000 
	C309.000000,98.354225 309.000000,115.708458 308.760864,133.879837 
	C302.955444,128.027405 299.442535,126.622284 293.514130,129.091522 
	C292.469910,129.526459 291.390198,130.990845 291.200897,132.125641 
	C290.835724,134.314621 291.094360,136.607697 291.094360,138.702942 
	C285.877777,138.702942 281.617157,138.702942 276.941650,138.702942 
	C276.941650,136.609558 277.447235,134.596283 276.799255,133.073990 
	C276.153015,131.555771 274.350494,130.529709 273.054932,129.287872 
	C272.370117,130.569351 271.338623,131.786331 271.085327,133.148056 
	C270.743530,134.985748 271.000458,136.934799 271.000458,138.696350 
	C267.885345,138.696350 265.625549,138.696350 263.196259,138.696350 
	C263.068146,136.266449 262.955780,134.134476 262.894165,131.679779 
	C263.011963,130.572571 262.963837,129.756424 263.168915,129.009857 
	C263.669464,127.187820 264.692719,125.395729 264.682648,123.596191 
	C264.677826,122.728371 262.616638,121.000252 261.834473,121.179520 
	C259.849365,121.634483 257.225464,122.492027 256.392578,124.023384 
	C255.195618,126.224152 255.541519,129.082001 258.611053,130.116226 
	C257.666962,133.076096 257.078613,135.857941 256.483337,138.672424 
	C249.779266,138.672424 243.072815,138.672424 236.418884,138.672424 
	C233.727295,119.075325 233.729172,121.374123 222.990997,122.803505 
	C223.060440,124.390076 223.130676,125.994888 223.191055,127.374329 
	C225.658524,127.955261 227.779175,128.454544 229.513855,128.974548 
	C227.070374,129.628296 225.012878,130.261322 222.633026,131.096039 
	C221.930084,133.533279 221.549484,135.768860 221.113098,138.371597 
	C221.136368,139.049820 221.135925,139.415375 221.306229,139.663910 
	C224.779587,144.732864 230.449646,143.567963 235.159500,143.818573 
	C246.058884,144.398483 257.009430,144.016602 267.983948,144.260559 
	C268.028687,144.496353 267.933167,144.966766 267.590576,145.189972 
	C267.247955,146.824539 267.247955,148.235901 267.247955,149.787201 
	C270.843506,149.787201 274.227844,149.787201 278.887756,149.787201 
	C277.696503,147.762268 276.875488,146.366684 276.011658,144.734283 
	C275.968842,144.497467 276.064026,144.025650 276.526794,144.016373 
	C281.992035,143.950027 286.994476,143.892960 292.457123,143.902390 
	C298.430573,143.804520 304.270874,145.411926 309.000000,141.000000 
	C309.000000,145.689255 309.000000,150.378510 308.652588,155.805725 
	C303.959869,154.547836 302.005859,157.210220 300.639221,160.613251 
	C299.306091,159.031723 298.117004,156.361328 296.835297,156.316116 
	C290.929504,156.107727 284.997925,156.631058 279.046600,156.928040 
	C279.017609,156.964081 279.098145,156.918610 278.946106,156.651413 
	C278.209442,156.317734 277.624847,156.251236 276.651550,156.137543 
	C275.500336,158.039261 274.737793,159.988174 273.737610,161.983826 
	C273.499969,162.030548 273.024597,161.937775 273.014099,161.557755 
	C271.050720,156.057190 267.666138,154.927963 259.000000,156.772049 
	C259.000000,162.105423 259.000000,167.552719 259.000000,173.000000 
	C259.000000,173.000000 258.500000,173.000000 258.033691,172.579254 
	C257.695862,168.707581 258.091431,165.240616 257.885559,161.809738 
	C257.624420,157.458069 254.223618,156.401840 250.627213,156.037079 
	C247.171204,155.686554 243.888519,156.994888 243.437012,160.437714 
	C242.900284,164.530136 243.750656,168.804489 244.000000,173.000000 
	C243.555557,173.000000 243.111099,173.000000 242.330627,172.532196 
	C241.994614,166.799225 241.994614,161.534073 241.994614,156.282089 
	C239.944870,156.282089 238.680237,156.282089 237.275284,156.282089 
	C237.057312,158.600845 236.861649,160.682449 236.636398,163.078644 
	C234.904083,162.891235 233.522141,162.741730 232.213150,162.600113 
	C232.041824,160.212799 231.903152,158.280563 231.770706,156.434875 
	C223.353348,156.434875 215.309464,156.434875 206.998840,156.434875 
	C206.998840,159.532242 207.152817,162.199783 206.950821,164.840103 
	C206.785110,167.005875 208.358841,170.656479 202.980179,169.793503 
	C202.980179,166.617355 203.311401,163.446487 202.842743,160.398621 
	C202.602539,158.836533 200.932388,157.494339 199.908508,156.052765 
	C198.944168,157.452744 197.432495,158.748184 197.140564,160.276581 
	C196.673447,162.722305 197.015503,165.322586 197.015503,167.857529 
	C195.037308,164.743927 194.026291,161.478806 192.576828,158.421570 
	C192.074448,157.361923 190.552475,156.369583 189.368286,156.190018 
	C188.525421,156.062225 186.903595,157.151505 186.600830,158.031738 
	C184.903976,162.965027 183.502396,167.999847 182.000000,173.000000 
	C180.285645,173.000000 178.571289,173.000000 176.389954,172.536530 
	C175.624893,167.357605 175.326828,162.642151 174.994598,157.688507 
	C174.960449,157.450333 174.776993,157.005447 174.634888,156.674683 
	C173.040710,156.888184 171.588638,157.432434 170.083755,158.399292 
	C169.745026,162.803406 169.745026,162.803406 166.195053,162.332108 
	C166.065536,160.896362 165.933762,159.435593 165.811676,157.729782 
	C165.649475,157.177109 165.389679,156.994629 164.836258,156.626617 
	C159.908127,156.210617 155.174728,155.882538 150.468979,156.114822 
	C148.702927,156.201996 147.001144,157.591248 145.270050,158.386856 
	C146.579559,159.638809 147.889069,160.890762 150.000000,162.908890 
	C150.000000,165.408615 150.000000,169.204315 150.000000,173.000000 
	C150.000000,173.000000 149.500000,173.000000 149.230438,172.598770 
	C146.511597,171.113174 144.062302,170.028809 140.997116,168.671768 
	C140.997116,166.652740 141.019699,163.873428 140.992172,161.094635 
	C140.942810,156.108978 140.804382,155.991577 136.000000,156.757858 
	C136.000000,162.137955 136.000000,167.568985 136.000000,173.000000 
	C136.000000,173.000000 135.500000,173.000000 135.246368,172.610107 
	C133.526062,167.887497 132.251343,163.474045 130.482025,159.268677 
	C129.911636,157.912964 128.162964,156.668335 126.703880,156.256363 
	C126.101913,156.086411 124.493843,158.093384 123.949226,159.368912 
	C122.369919,163.067719 121.097610,166.897629 119.741180,170.577484 
	C116.686852,170.114227 114.061035,169.715973 111.435219,169.317703 
	C112.429176,168.114761 113.319618,168.251572 114.044975,167.967255 
	C115.645264,167.339981 117.162361,166.500443 118.713394,165.747498 
	C117.232262,164.829941 115.806763,163.798553 114.249168,163.037476 
	C113.313141,162.580139 112.171135,162.544342 111.121696,162.319092 
	C111.178070,161.982224 111.234436,161.645355 111.290802,161.308472 
	C114.145081,161.088470 116.999359,160.868454 119.853638,160.648438 
	C120.098984,160.074158 120.344337,159.499863 120.589684,158.925583 
	C119.025986,157.950882 117.570328,156.524338 115.870743,156.117905 
	C113.828857,155.629639 111.572220,156.121536 109.421387,155.985855 
	C106.764336,155.818222 105.914108,157.047714 105.971352,159.544174 
	C106.074150,164.027313 106.000137,168.514496 106.000000,173.000000 
	C106.000000,173.000000 105.500000,173.000000 105.244286,172.533157 
	C104.987770,168.260956 105.226120,164.433228 104.873413,160.660767 
	C104.723557,159.057953 103.335220,157.570938 102.509735,156.031296 
	C101.339081,157.465561 100.196274,158.923798 98.988594,160.326157 
	C98.098228,161.360046 97.123177,162.320999 95.339172,164.211838 
	C95.041481,160.371429 94.892097,158.444275 94.730934,156.365204 
	C93.059143,156.365204 91.702774,156.365204 90.000000,156.365204 
	C90.000000,162.122620 90.000000,167.561310 90.000000,173.000000 
	C88.285645,173.000000 86.571281,173.000000 84.071228,172.859406 
	C83.081512,165.540268 78.533791,169.673325 75.330841,170.030838 
	C75.330841,166.904373 75.330841,164.069534 75.330841,161.502121 
	C78.278580,161.801682 80.914444,162.069550 84.376938,162.421417 
	C80.464378,154.218674 74.985443,153.984344 70.119125,159.425476 
	C68.016785,158.013046 66.055519,156.695389 64.094254,155.377747 
	C63.690880,155.773453 63.287506,156.169159 62.884132,156.564880 
	C62.884132,161.357941 62.884132,166.151016 62.515270,170.783264 
	C59.925999,170.288071 57.705593,169.953705 54.992989,169.545212 
	C54.992989,166.788101 55.018600,164.008224 54.987392,161.228989 
	C54.930820,156.190323 54.812542,156.088669 50.000000,156.703018 
	C50.000000,162.104828 50.000000,167.552414 50.000000,173.000000 
	C50.000000,173.000000 49.500000,173.000000 49.060318,172.605499 
	C48.676132,168.553940 49.421940,164.716797 48.532284,161.306259 
	C47.984852,159.207657 45.199993,157.087463 42.941029,156.211487 
	C40.700184,155.342545 37.859158,156.021317 35.000000,156.021317 
	C35.000000,162.127380 35.000000,167.563690 35.000000,173.000000 
	C34.250000,173.000000 33.500000,173.000000 32.376278,172.771484 
	C32.002556,172.542953 32.032391,172.086884 32.253983,171.987396 
	C32.803673,171.688065 32.907894,171.405579 32.866840,170.578949 
	C32.886932,165.745819 32.828419,161.374252 32.712524,156.723434 
	C32.118351,156.359055 31.581560,156.273911 30.700745,156.136230 
	C29.895134,156.116852 29.433546,156.150009 28.726709,156.157837 
	C28.121576,156.313858 28.012360,156.593246 28.091797,157.430695 
	C28.007744,161.887009 27.985704,165.883255 27.568581,169.934418 
	C26.126318,169.951447 25.079140,169.913574 24.010632,169.556488 
	C23.929285,168.815781 23.869267,168.394302 23.883615,167.527863 
	C23.655096,163.702744 23.352211,160.322556 23.026243,156.971008 
	C23.003160,156.999634 23.059370,156.951675 22.881132,156.655243 
	C21.525347,156.573257 20.347801,156.787689 19.098309,157.230286 
	C19.026360,157.458481 18.973846,157.934113 18.723516,158.061844 
	C17.998047,158.433990 17.522909,158.678391 16.895973,158.580719 
	C12.694416,157.255539 8.644659,156.272400 4.000000,155.144852 
	C4.000000,162.151901 4.000000,167.575958 4.000000,173.000000 
	C3.000809,173.000000 2.001619,173.000000 1.001821,173.000000 
	C1.001214,115.713875 1.001214,58.427753 1.001214,1.070815 
	C103.666656,1.070815 206.333328,1.070815 309.000000,1.070815 
	C309.000000,20.093359 309.000000,39.078022 308.687805,58.827396 
	C306.903290,55.472385 305.513580,51.320889 303.943268,47.238842 
	C299.068298,34.566017 283.896759,27.107124 272.781311,39.754757 
	C264.860596,48.767258 263.753235,59.627529 265.537476,70.872887 
	C266.445923,76.598236 270.831116,79.734016 276.246277,80.899017 
	C280.387238,81.789902 284.686005,81.947258 289.313477,82.476517 
	C284.476105,86.266769 279.185791,87.149193 273.394073,86.511467 
	C272.270325,86.387733 270.226685,86.904167 270.002899,87.584412 
	C268.639984,91.727112 267.680511,96.002541 266.616272,100.118309 
	C282.952209,106.987274 303.937408,100.221146 307.180389,81.738167 
	C307.240387,81.396217 308.369629,81.241882 309.000000,81.000000 
M105.930885,81.966568 
	C113.288094,81.922211 120.645309,81.877853 128.914612,81.965584 
	C130.574493,81.976753 132.234390,81.997139 133.894272,81.997581 
	C144.201569,82.000343 149.331009,78.633057 151.030991,68.307480 
	C152.384827,60.084286 151.955688,51.533440 151.948685,43.128361 
	C151.938339,30.736546 153.589554,32.854858 141.436523,35.296444 
	C138.375839,35.911354 136.711441,37.473297 136.904297,41.119171 
	C137.245834,47.575089 136.884735,54.065010 137.047333,60.534931 
	C137.126389,63.681488 136.026535,65.599571 132.003876,66.082260 
	C105.012589,66.110458 78.021301,66.138649 50.342911,66.041702 
	C49.882977,66.094810 49.423046,66.147926 48.162090,66.030434 
	C47.431278,64.906029 46.134415,63.817265 46.061012,62.651459 
	C45.563782,54.754841 45.274689,46.843540 45.024166,38.933636 
	C44.900627,35.033047 45.002728,31.125311 45.002728,26.644798 
	C40.598255,27.684683 36.945992,28.435284 33.374966,29.467068 
	C32.459621,29.731539 31.797493,30.880476 31.024935,31.629164 
	C29.871046,32.747395 28.881821,34.145206 27.534468,34.928658 
	C25.469126,36.129597 23.158728,36.909103 20.206802,37.976795 
	C12.080961,41.529480 4.997845,45.484333 3.737421,55.942589 
	C2.513679,66.096481 8.141417,75.153618 18.149725,76.622856 
	C18.755762,76.700935 19.361799,76.779007 20.771002,76.964371 
	C21.847805,76.923981 22.924608,76.883591 24.800440,76.968208 
	C29.644646,75.749184 34.260174,74.128967 38.299538,79.434929 
	C39.626152,81.177528 43.365154,81.083618 46.930672,81.957497 
	C56.954342,81.914619 66.978012,81.871750 77.930656,81.960426 
	C86.954445,81.918648 95.978241,81.876869 105.930885,81.966568 
M178.539871,66.089279 
	C178.353287,66.129509 178.166718,66.169731 177.157669,66.078560 
	C176.109543,64.912254 174.176315,63.766689 174.148407,62.576466 
	C173.822601,48.677872 173.353912,34.758942 173.793823,20.872980 
	C174.204330,7.915254 174.679581,7.990116 162.624557,10.958895 
	C159.928665,11.622811 158.911057,12.829159 158.932617,15.688751 
	C159.058151,32.340965 158.924957,48.995041 159.031158,65.647522 
	C159.076462,72.753601 163.383316,80.593292 171.701721,81.271172 
	C175.460922,81.577515 179.238602,81.656921 183.936172,81.968437 
	C192.291977,81.924934 200.647766,81.881432 209.932037,81.970779 
	C217.955704,81.925644 225.979385,81.880508 234.901321,81.970306 
	C249.009384,83.288483 256.108185,75.890228 258.617889,66.751625 
	C261.631775,55.777271 260.089111,45.135132 254.934174,35.227306 
	C249.798248,25.355967 236.660202,22.421589 228.319031,29.176649 
	C226.863876,30.642458 225.228714,31.970318 223.982513,33.596275 
	C215.344101,44.867172 217.788528,60.304329 228.103714,66.111282 
	C211.764160,66.162292 195.424591,66.213310 178.539871,66.089279 
M199.043564,137.468674 
	C197.904373,125.416328 188.503250,129.465256 182.056854,129.454605 
	C175.575912,129.443909 181.304428,136.323471 178.242554,138.741867 
	C176.269073,138.741867 174.316315,138.741867 172.406708,138.741867 
	C171.241928,131.199814 166.979263,127.413315 161.369492,129.215698 
	C159.690308,129.755203 158.515198,131.863571 157.109146,133.253174 
	C158.836014,133.928497 160.596420,134.530624 162.279251,135.302032 
	C163.650696,135.930725 164.929352,136.761902 166.249146,137.503281 
	C165.978790,137.875916 165.708420,138.248535 165.438065,138.621170 
	C154.709747,138.621170 143.981415,138.621170 132.991577,138.621170 
	C132.991577,135.591354 133.335907,132.880142 132.895752,130.302933 
	C132.446091,127.670067 131.226456,125.168716 130.317474,122.533180 
	C122.785011,121.263901 120.230263,121.694351 120.086029,124.495331 
	C119.799431,130.060852 124.749519,126.937386 127.374855,128.737061 
	C126.181786,128.857559 125.396812,128.906540 124.621307,129.020172 
	C120.192116,129.669098 118.935104,131.915833 118.935463,137.742111 
	C118.935738,142.186752 121.682922,142.753342 125.069145,143.033432 
	C127.182793,143.208252 129.272385,143.945114 131.374130,143.951065 
	C155.680344,144.019943 179.987122,144.040924 204.292343,143.872345 
	C205.528244,143.863785 207.758240,142.068390 207.814926,141.013062 
	C208.150513,134.765549 207.980438,128.490875 207.980438,122.499588 
	C203.153473,121.079788 201.835754,123.029701 201.994583,126.894218 
	C202.124374,130.051910 202.011200,133.219452 202.012238,136.382629 
	C202.012909,138.406647 201.626114,139.844467 199.043564,137.468674 
M4.902482,140.349564 
	C6.569396,141.234329 8.193702,142.782349 9.910370,142.892639 
	C18.819567,143.464981 27.750851,143.720505 36.677452,143.984528 
	C41.829426,144.136917 47.069199,143.535339 52.122986,144.274521 
	C59.732811,145.387558 62.559925,143.251282 61.988571,135.569839 
	C61.646442,130.970108 59.431885,129.057968 54.465832,129.009521 
	C50.218849,128.968063 48.176239,130.942780 47.856731,135.274277 
	C47.760883,136.573746 46.079170,138.791443 45.065277,138.825211 
	C36.482311,139.110977 27.885754,138.988388 19.383247,138.988388 
	C17.446928,121.103416 17.346865,120.979774 6.262182,122.498886 
	C6.262182,124.202217 6.262182,125.935059 6.262182,127.741600 
	C8.269385,127.940239 10.021476,128.113632 13.178921,128.426102 
	C4.791199,129.832687 3.493979,131.777588 4.902482,140.349564 
M99.996895,132.369965 
	C99.269012,134.449463 101.645081,137.962143 97.431717,138.613235 
	C98.798874,134.992584 98.363228,131.324707 94.953697,130.412460 
	C91.293297,129.433075 87.030396,130.091324 83.225822,130.925858 
	C82.653778,131.051331 83.146172,136.029556 83.146172,138.616882 
	C79.078506,138.616882 74.178986,138.616882 68.882935,138.616882 
	C68.882935,132.966888 68.882935,127.695099 68.882935,122.486641 
	C64.644882,121.221550 62.877419,122.467758 63.068874,126.629921 
	C63.252121,130.613571 63.000980,134.616302 63.153240,138.602539 
	C63.279240,141.901321 64.406288,144.146393 68.503700,144.072937 
	C79.478020,143.876205 90.461601,144.137100 101.432053,143.852234 
	C102.948997,143.812866 105.605812,141.802048 105.698265,140.553131 
	C106.146706,134.495300 105.900673,128.386047 105.900673,122.279343 
	C103.624435,122.279343 102.032784,122.279343 99.996902,122.279343 
	C99.996902,125.503616 99.996902,128.464386 99.996895,132.369965 
M17.481668,25.936571 
	C20.396687,23.634405 23.311705,21.332237 26.877512,18.516104 
	C28.417223,20.351297 29.936028,22.110722 31.397789,23.916327 
	C33.362225,26.342842 35.104553,26.625647 37.428608,24.086403 
	C45.991581,14.730558 46.280415,18.375898 37.378788,8.867970 
	C35.394615,6.748654 33.577827,6.262381 31.709257,8.828704 
	C30.155149,10.963136 28.700680,13.170116 26.490570,16.377531 
	C23.460676,12.694950 21.866854,10.793235 20.312624,8.859697 
	C18.415539,6.499629 16.727999,6.603130 14.626790,8.821377 
	C5.967615,17.962873 5.632509,15.002373 14.485457,24.004168 
	C15.173059,24.703331 15.995930,25.269464 17.481668,25.936571 
M240.558228,18.044048 
	C241.373627,18.875744 242.050354,20.027939 243.040283,20.456247 
	C244.219864,20.966621 246.582733,21.393042 246.854813,20.929510 
	C248.976074,17.315649 255.986343,16.524569 254.082733,11.144135 
	C252.943680,7.924722 249.231796,5.130229 246.002411,3.409863 
	C244.931747,2.839502 241.751129,6.203734 239.551224,7.791311 
	C238.583603,8.489605 237.656128,9.243506 236.933731,9.800112 
	C232.786163,8.253542 231.635239,1.268046 226.417160,3.611484 
	C223.336334,4.995076 218.973770,9.704568 219.531158,11.712790 
	C220.664520,15.796184 224.742981,19.062157 227.883972,23.012377 
	C231.195572,19.423676 233.676575,16.735077 236.850006,13.296103 
	C238.070740,14.923216 239.057175,16.238035 240.558228,18.044048 
M146.507172,84.128143 
	C145.155014,84.431290 143.418396,84.312241 142.528259,85.122787 
	C140.482330,86.985741 138.848511,89.301277 137.015549,91.470871 
	C134.775513,89.462059 133.323746,88.156853 131.868271,86.855797 
	C130.319016,85.470901 128.766235,84.089928 128.118668,83.512726 
	C124.939125,86.178238 122.078255,88.323517 119.581390,90.831238 
	C118.875359,91.540352 118.627251,93.760918 119.195488,94.522881 
	C126.237762,103.966148 127.487991,103.979996 135.470703,95.325043 
	C135.637650,95.144020 136.076401,95.213692 137.078262,95.061829 
	C138.588791,96.733559 140.155258,98.999390 142.245361,100.567101 
	C143.376205,101.415298 146.115692,101.863045 146.911560,101.143791 
	C154.865768,93.955246 157.604004,93.094543 147.722702,85.882286 
	C147.363663,85.620239 147.193588,85.099304 146.507172,84.128143 
M110.459274,143.994614 
	C111.284668,143.443497 112.813789,142.909943 112.828049,142.338577 
	C112.995422,135.634384 112.935448,128.924500 112.935448,121.941193 
	C110.669380,122.085426 109.085426,122.186241 107.024734,122.317398 
	C107.024734,129.039032 106.943527,135.449448 107.135345,141.851700 
	C107.157425,142.588730 108.700867,143.280167 110.459274,143.994614 
M209.980057,139.307343 
	C210.064697,140.753143 210.149338,142.198959 210.255157,144.006439 
	C212.250809,143.902802 213.935684,143.815292 215.902863,143.713120 
	C215.902863,137.734802 215.743835,132.295547 215.953217,126.870499 
	C216.120529,122.535103 214.400497,121.214973 209.980209,122.531227 
	C209.980209,127.824669 209.980209,133.084442 209.980057,139.307343 
z"/>
<path fill="#09CA93" opacity="1.000000" stroke="none" 
	d="
M309.000000,80.531425 
	C308.369629,81.241882 307.240387,81.396217 307.180389,81.738167 
	C303.937408,100.221146 282.952209,106.987274 266.616272,100.118309 
	C267.680511,96.002541 268.639984,91.727112 270.002899,87.584412 
	C270.226685,86.904167 272.270325,86.387733 273.394073,86.511467 
	C279.185791,87.149193 284.476105,86.266769 289.313477,82.476517 
	C284.686005,81.947258 280.387238,81.789902 276.246277,80.899017 
	C270.831116,79.734016 266.445923,76.598236 265.537476,70.872887 
	C263.753235,59.627529 264.860596,48.767258 272.781311,39.754757 
	C283.896759,27.107124 299.068298,34.566017 303.943268,47.238842 
	C305.513580,51.320889 306.903290,55.472385 308.687805,59.296055 
	C309.000000,66.020950 309.000000,73.041893 309.000000,80.531425 
M284.602936,66.015503 
	C287.682037,66.015503 290.761108,66.015503 295.101013,66.015503 
	C293.072876,60.469505 291.872742,55.729870 289.643463,51.537483 
	C287.743927,47.965237 284.301300,48.138458 282.606171,51.845482 
	C281.100769,55.137733 280.737152,58.961590 279.943939,62.567158 
	C279.245575,65.741631 281.130493,66.251251 284.602936,66.015503 
z"/>
<path fill="#0D93A3" opacity="1.000000" stroke="none" 
	d="
M182.468658,173.000000 
	C183.502396,167.999847 184.903976,162.965027 186.600830,158.031738 
	C186.903595,157.151505 188.525421,156.062225 189.368286,156.190018 
	C190.552475,156.369583 192.074448,157.361923 192.576828,158.421570 
	C194.026291,161.478806 195.037308,164.743927 197.015503,167.857529 
	C197.015503,165.322586 196.673447,162.722305 197.140564,160.276581 
	C197.432495,158.748184 198.944168,157.452744 199.908508,156.052765 
	C200.932388,157.494339 202.602539,158.836533 202.842743,160.398621 
	C203.311401,163.446487 202.980179,166.617355 202.980179,169.793503 
	C208.358841,170.656479 206.785110,167.005875 206.950821,164.840103 
	C207.152817,162.199783 206.998840,159.532242 206.998840,156.434875 
	C215.309464,156.434875 223.353348,156.434875 231.770706,156.434875 
	C231.903152,158.280563 232.041824,160.212799 232.213150,162.600113 
	C233.522141,162.741730 234.904083,162.891235 236.636398,163.078644 
	C236.861649,160.682449 237.057312,158.600845 237.275284,156.282089 
	C238.680237,156.282089 239.944870,156.282089 241.994614,156.282089 
	C241.994614,161.534073 241.994614,166.799225 241.997314,172.532196 
	C240.611115,173.000000 239.222214,173.000000 237.413834,172.574066 
	C237.484055,168.232117 235.858994,167.144302 232.000000,168.610535 
	C232.000000,170.092163 232.000000,171.546082 232.000000,173.000000 
	C230.611115,173.000000 229.222214,173.000000 227.416779,172.538086 
	C227.000244,168.500748 227.000244,164.925339 227.000244,161.008942 
	C225.036469,161.142593 223.670334,161.235580 222.000000,161.349274 
	C222.000000,165.473618 222.000000,169.236801 222.000000,173.000000 
	C220.611115,173.000000 219.222214,173.000000 217.414032,172.538239 
	C216.994720,168.493591 216.994720,164.910706 216.994720,160.968903 
	C214.990067,161.133652 213.623016,161.245987 212.000000,161.379379 
	C212.000000,165.505188 212.000000,169.252594 212.000000,173.000000 
	C202.312439,173.000000 192.624878,173.000000 182.468658,173.000000 
z"/>
<path fill="#0D92A3" opacity="1.000000" stroke="none" 
	d="
M229.899841,128.953827 
	C227.779175,128.454544 225.658524,127.955261 223.191055,127.374329 
	C223.130676,125.994888 223.060440,124.390076 222.990997,122.803505 
	C233.729172,121.374123 233.727295,119.075325 236.418884,138.672424 
	C243.072815,138.672424 249.779266,138.672424 256.483337,138.672424 
	C257.078613,135.857941 257.666962,133.076096 258.816010,130.369431 
	C260.532257,130.963913 261.687836,131.483215 262.843384,132.002518 
	C262.955780,134.134476 263.068146,136.266449 263.196259,138.696350 
	C265.625549,138.696350 267.885345,138.696350 271.000458,138.696350 
	C271.000458,136.934799 270.743530,134.985748 271.085327,133.148056 
	C271.338623,131.786331 272.370117,130.569351 273.054932,129.287872 
	C274.350494,130.529709 276.153015,131.555771 276.799255,133.073990 
	C277.447235,134.596283 276.941650,136.609558 276.941650,138.702942 
	C281.617157,138.702942 285.877777,138.702942 291.094360,138.702942 
	C291.094360,136.607697 290.835724,134.314621 291.200897,132.125641 
	C291.390198,130.990845 292.469910,129.526459 293.514130,129.091522 
	C299.442535,126.622284 302.955444,128.027405 308.760864,134.348495 
	C309.000000,136.041672 309.000000,138.083328 309.000000,140.562500 
	C304.270874,145.411926 298.430573,143.804520 292.229736,143.607773 
	C281.674103,142.452164 271.816772,141.245132 261.934753,140.987961 
	C253.344711,140.764404 244.729691,141.749863 236.119965,141.938568 
	C231.157562,142.047318 229.382889,139.728806 229.791275,134.711273 
	C229.946671,132.801819 229.870483,130.873535 229.899841,128.953827 
z"/>
<path fill="#0D92A2" opacity="1.000000" stroke="none" 
	d="
M106.468658,173.000000 
	C106.000137,168.514496 106.074150,164.027313 105.971352,159.544174 
	C105.914108,157.047714 106.764336,155.818222 109.421387,155.985855 
	C111.572220,156.121536 113.828857,155.629639 115.870743,156.117905 
	C117.570328,156.524338 119.025986,157.950882 120.589684,158.925583 
	C120.344337,159.499863 120.098984,160.074158 119.853638,160.648438 
	C116.999359,160.868454 114.145081,161.088470 111.290802,161.308472 
	C111.234436,161.645355 111.178070,161.982224 111.121696,162.319092 
	C112.171135,162.544342 113.313141,162.580139 114.249168,163.037476 
	C115.806763,163.798553 117.232262,164.829941 118.713394,165.747498 
	C117.162361,166.500443 115.645264,167.339981 114.044975,167.967255 
	C113.319618,168.251572 112.429176,168.114761 111.435219,169.317703 
	C114.061035,169.715973 116.686852,170.114227 119.741180,170.577484 
	C121.097610,166.897629 122.369919,163.067719 123.949226,159.368912 
	C124.493843,158.093384 126.101913,156.086411 126.703880,156.256363 
	C128.162964,156.668335 129.911636,157.912964 130.482025,159.268677 
	C132.251343,163.474045 133.526062,167.887497 134.996368,172.610107 
	C125.645775,173.000000 116.291542,173.000000 106.468658,173.000000 
z"/>
<path fill="#0D94A4" opacity="1.000000" stroke="none" 
	d="
M23.809250,167.972809 
	C23.869267,168.394302 23.929285,168.815781 24.265320,169.734680 
	C25.682114,170.114563 26.822889,169.997040 27.963665,169.879517 
	C27.985704,165.883255 28.007744,161.887009 28.237370,157.309265 
	C28.633631,156.558838 28.809298,156.377289 28.971958,156.183167 
	C29.433546,156.150009 29.895134,156.116852 30.899887,156.269928 
	C31.885340,156.638336 32.327625,156.820496 32.769905,157.002655 
	C32.828419,161.374252 32.886932,165.745819 32.729473,170.744949 
	C32.336773,171.599625 32.176403,171.837753 32.032391,172.086884 
	C32.032391,172.086884 32.002556,172.542953 32.001278,172.771484 
	C27.975456,173.000000 23.950911,173.000000 19.463743,172.599792 
	C18.639917,170.147202 18.278713,168.094788 18.050692,165.842743 
	C18.099993,165.152267 18.016109,164.661438 17.932228,164.170624 
	C17.635714,164.814545 17.339201,165.458466 16.879551,166.428650 
	C14.281952,167.809891 11.847489,168.864868 9.000000,170.098831 
	C9.000000,170.750397 9.000000,171.875198 9.000000,173.000000 
	C7.611111,173.000000 6.222222,173.000000 4.416667,173.000000 
	C4.000000,167.575958 4.000000,162.151901 4.000000,155.144852 
	C8.644659,156.272400 12.694416,157.255539 16.990578,158.789337 
	C17.815933,158.871368 18.394888,158.402740 18.973845,157.934113 
	C18.973846,157.934113 19.026360,157.458481 19.487274,157.229126 
	C20.985249,156.983734 22.022310,156.967697 23.059370,156.951675 
	C23.059370,156.951675 23.003160,156.999634 23.016533,157.422760 
	C23.289688,161.221527 23.549469,164.597168 23.809250,167.972809 
z"/>
<path fill="#0D92A3" opacity="1.000000" stroke="none" 
	d="
M174.776993,157.005447 
	C174.776993,157.005447 174.960449,157.450333 174.987671,158.159241 
	C175.009918,163.578751 175.004959,168.289383 175.000000,173.000000 
	C173.933334,173.000000 172.866653,173.000000 171.372742,172.634735 
	C169.588959,171.174225 168.232422,170.078949 166.875900,168.983688 
	C166.250610,170.322464 165.625305,171.661224 165.000000,173.000000 
	C163.611115,173.000000 162.222214,173.000000 160.415237,172.538879 
	C159.997147,168.501663 159.997147,164.925552 159.997147,161.349457 
	C159.480637,161.076843 158.964111,160.804230 158.447601,160.531616 
	C157.620163,161.561707 156.192825,162.530319 156.079758,163.633621 
	C155.762833,166.725983 155.988434,169.873962 156.000000,173.000000 
	C154.285645,173.000000 152.571289,173.000000 150.428467,173.000000 
	C150.000000,169.204315 150.000000,165.408615 150.000000,162.908890 
	C147.889069,160.890762 146.579559,159.638809 145.270050,158.386856 
	C147.001144,157.591248 148.702927,156.201996 150.468979,156.114822 
	C155.174728,155.882538 159.908127,156.210617 164.950867,156.807602 
	C165.434326,157.535309 165.611267,157.760483 165.802002,157.974823 
	C165.933762,159.435593 166.065536,160.896362 166.195053,162.332108 
	C169.745026,162.803406 169.745026,162.803406 170.397079,158.265533 
	C172.101135,157.474594 173.439056,157.240021 174.776993,157.005447 
z"/>
<path fill="#0D94A2" opacity="1.000000" stroke="none" 
	d="
M273.975220,161.937088 
	C274.737793,159.988174 275.500336,158.039261 276.893188,156.269058 
	C278.048370,156.604706 278.573242,156.761658 279.098145,156.918610 
	C279.098145,156.918610 279.017609,156.964081 279.031799,157.398865 
	C279.302429,162.556610 279.558838,167.279602 279.891846,172.246307 
	C279.979004,172.660019 279.989502,172.830002 280.000000,173.000000 
	C273.312347,173.000000 266.624725,173.000000 259.468536,173.000000 
	C259.000000,167.552719 259.000000,162.105423 259.000000,156.772049 
	C267.666138,154.927963 271.050720,156.057190 273.059021,161.696228 
	C273.401367,162.122177 273.688293,162.029633 273.975220,161.937088 
z"/>
<path fill="#0C92A3" opacity="1.000000" stroke="none" 
	d="
M279.815247,172.002579 
	C279.558838,167.279602 279.302429,162.556610 279.060791,157.362823 
	C284.997925,156.631058 290.929504,156.107727 296.835297,156.316116 
	C298.117004,156.361328 299.306091,159.031723 300.639221,160.613251 
	C302.005859,157.210220 303.959869,154.547836 308.652588,156.271851 
	C309.000000,157.066666 309.000000,158.133347 308.764801,159.243393 
	C304.503998,162.977829 302.606537,167.527039 303.000000,173.000000 
	C301.611115,173.000000 300.222198,173.000000 298.416290,172.578735 
	C297.926514,164.236588 295.324615,160.694870 290.000000,161.748550 
	C290.000000,165.456314 290.000000,169.228149 290.000000,173.000000 
	C288.285645,173.000000 286.571289,173.000000 284.431641,172.538574 
	C284.006317,168.498779 284.006317,164.920425 284.006317,161.342072 
	C283.491852,161.076538 282.977356,160.811005 282.462891,160.545471 
	C281.633179,161.567337 280.243439,162.509521 280.084442,163.626816 
	C279.693268,166.375839 279.868103,169.205414 279.815247,172.002579 
z"/>
<path fill="#0C93A2" opacity="1.000000" stroke="none" 
	d="
M62.884132,170.944092 
	C62.884132,166.151016 62.884132,161.357941 62.884132,156.564880 
	C63.287506,156.169159 63.690880,155.773453 64.094254,155.377747 
	C66.055519,156.695389 68.016785,158.013046 70.119125,159.425476 
	C74.985443,153.984344 80.464378,154.218674 84.376938,162.421417 
	C80.914444,162.069550 78.278580,161.801682 75.330841,161.502121 
	C75.330841,164.069534 75.330841,166.904373 75.330841,170.030838 
	C78.533791,169.673325 83.081512,165.540268 83.642761,172.859406 
	C77.645599,173.000000 71.291206,173.000000 64.370781,172.721863 
	C63.497883,171.943832 63.191010,171.443970 62.884132,170.944092 
z"/>
<path fill="#0D92A3" opacity="1.000000" stroke="none" 
	d="
M35.464653,173.000000 
	C35.000000,167.563690 35.000000,162.127380 35.000000,156.021317 
	C37.859158,156.021317 40.700184,155.342545 42.941029,156.211487 
	C45.199993,157.087463 47.984852,159.207657 48.532284,161.306259 
	C49.421940,164.716797 48.676132,168.553940 48.810318,172.605499 
	C44.643101,173.000000 40.286201,173.000000 35.464653,173.000000 
z"/>
<path fill="#0E93A3" opacity="1.000000" stroke="none" 
	d="
M90.466118,173.000000 
	C90.000000,167.561310 90.000000,162.122620 90.000000,156.365204 
	C91.702774,156.365204 93.059143,156.365204 94.730934,156.365204 
	C94.892097,158.444275 95.041481,160.371429 95.339172,164.211838 
	C97.123177,162.320999 98.098228,161.360046 98.988594,160.326157 
	C100.196274,158.923798 101.339081,157.465561 102.509735,156.031296 
	C103.335220,157.570938 104.723557,159.057953 104.873413,160.660767 
	C105.226120,164.433228 104.987770,168.260956 104.994286,172.533157 
	C100.310745,173.000000 95.621490,173.000000 90.466118,173.000000 
z"/>
<path fill="#0D93A3" opacity="1.000000" stroke="none" 
	d="
M244.464645,173.000000 
	C243.750656,168.804489 242.900284,164.530136 243.437012,160.437714 
	C243.888519,156.994888 247.171204,155.686554 250.627213,156.037079 
	C254.223618,156.401840 257.624420,157.458069 257.885559,161.809738 
	C258.091431,165.240616 257.695862,168.707581 257.783691,172.579254 
	C253.643097,173.000000 249.286194,173.000000 244.464645,173.000000 
M252.559189,168.838303 
	C252.435562,166.782776 252.506943,164.685013 252.076355,162.695938 
	C251.936584,162.050140 250.483521,161.688614 249.631134,161.197067 
	C249.105057,163.345596 248.282852,165.489777 248.251236,167.645569 
	C248.242828,168.218582 250.660965,168.827179 252.559189,168.838303 
z"/>
<path fill="#0D91A0" opacity="1.000000" stroke="none" 
	d="
M62.515270,170.783264 
	C63.191010,171.443970 63.497883,171.943832 63.902378,172.721863 
	C59.643101,173.000000 55.286201,173.000000 50.464653,173.000000 
	C50.000000,167.552414 50.000000,162.104828 50.000000,156.703018 
	C54.812542,156.088669 54.930820,156.190323 54.987392,161.228989 
	C55.018600,164.008224 54.992989,166.788101 54.992989,169.545212 
	C57.705593,169.953705 59.925999,170.288071 62.515270,170.783264 
z"/>
<path fill="#0C94A3" opacity="1.000000" stroke="none" 
	d="
M136.463181,173.000000 
	C136.000000,167.568985 136.000000,162.137955 136.000000,156.757858 
	C140.804382,155.991577 140.942810,156.108978 140.992172,161.094635 
	C141.019699,163.873428 140.997116,166.652740 140.997116,168.671768 
	C144.062302,170.028809 146.511597,171.113174 148.980438,172.598770 
	C144.975449,173.000000 140.950912,173.000000 136.463181,173.000000 
z"/>
<path fill="#000000" opacity="1.000000" stroke="none" 
	d="
M290.444153,173.000000 
	C290.000000,169.228149 290.000000,165.456314 290.000000,161.748550 
	C295.324615,160.694870 297.926514,164.236588 297.999634,172.578735 
	C295.629425,173.000000 293.258881,173.000000 290.444153,173.000000 
z"/>
<path fill="#000000" opacity="1.000000" stroke="none" 
	d="
M303.499481,173.000000 
	C302.606537,167.527039 304.503998,162.977829 308.764801,159.643387 
	C309.000000,164.216461 309.000000,168.432922 309.000000,173.000000 
	C307.346680,173.000000 305.672821,173.000000 303.499481,173.000000 
z"/>
<path fill="#000000" opacity="1.000000" stroke="none" 
	d="
M222.416656,173.000000 
	C222.000000,169.236801 222.000000,165.473618 222.000000,161.349274 
	C223.670334,161.235580 225.036469,161.142593 227.000244,161.008942 
	C227.000244,164.925339 227.000244,168.500748 227.000122,172.538086 
	C225.611115,173.000000 224.222214,173.000000 222.416656,173.000000 
z"/>
<path fill="#000000" opacity="1.000000" stroke="none" 
	d="
M212.416656,173.000000 
	C212.000000,169.252594 212.000000,165.505188 212.000000,161.379379 
	C213.623016,161.245987 214.990067,161.133652 216.994720,160.968903 
	C216.994720,164.910706 216.994720,168.493591 216.997360,172.538239 
	C215.611115,173.000000 214.222214,173.000000 212.416656,173.000000 
z"/>
<path fill="#000000" opacity="1.000000" stroke="none" 
	d="
M156.399994,173.000000 
	C155.988434,169.873962 155.762833,166.725983 156.079758,163.633621 
	C156.192825,162.530319 157.620163,161.561707 158.447601,160.531616 
	C158.964111,160.804230 159.480637,161.076843 159.997147,161.349457 
	C159.997147,164.925552 159.997147,168.501663 159.998566,172.538879 
	C158.933334,173.000000 157.866653,173.000000 156.399994,173.000000 
z"/>
<path fill="#000000" opacity="1.000000" stroke="none" 
	d="
M279.891876,172.246307 
	C279.868103,169.205414 279.693268,166.375839 280.084442,163.626816 
	C280.243439,162.509521 281.633179,161.567337 282.462891,160.545471 
	C282.977356,160.811005 283.491852,161.076538 284.006317,161.342072 
	C284.006317,164.920425 284.006317,168.498779 284.003174,172.538574 
	C282.933319,173.000000 281.866669,173.000000 280.399994,173.000000 
	C279.989502,172.830002 279.979004,172.660019 279.891876,172.246307 
z"/>
<path fill="#000000" opacity="1.000000" stroke="none" 
	d="
M17.917509,166.042389 
	C18.278713,168.094788 18.639917,170.147202 19.000561,172.599792 
	C15.969407,173.000000 12.938813,173.000000 9.454110,173.000000 
	C9.000000,171.875198 9.000000,170.750397 9.000000,170.098831 
	C11.847489,168.864868 14.281952,167.809891 17.096636,166.390442 
	C17.476858,166.025986 17.917509,166.042389 17.917509,166.042389 
z"/>
<path fill="#000000" opacity="1.000000" stroke="none" 
	d="
M232.416656,173.000000 
	C232.000000,171.546082 232.000000,170.092163 232.000000,168.610535 
	C235.858994,167.144302 237.484055,168.232117 236.997162,172.574066 
	C235.611115,173.000000 234.222214,173.000000 232.416656,173.000000 
z"/>
<path fill="#0D91A1" opacity="1.000000" stroke="none" 
	d="
M165.428467,173.000000 
	C165.625305,171.661224 166.250610,170.322464 166.875900,168.983688 
	C168.232422,170.078949 169.588959,171.174225 170.972748,172.634735 
	C169.285645,173.000000 167.571289,173.000000 165.428467,173.000000 
z"/>
<path fill="#0D91A1" opacity="1.000000" stroke="none" 
	d="
M175.250000,173.000000 
	C175.004959,168.289383 175.009918,163.578751 175.021820,158.397415 
	C175.326828,162.642151 175.624893,167.357605 175.961487,172.536530 
	C176.000000,173.000000 175.500000,173.000000 175.250000,173.000000 
z"/>
<path fill="#0AB396" opacity="1.000000" stroke="none" 
	d="
M183.007904,81.839294 
	C179.238602,81.656921 175.460922,81.577515 171.701721,81.271172 
	C163.383316,80.593292 159.076462,72.753601 159.031158,65.647522 
	C158.924957,48.995041 159.058151,32.340965 158.932617,15.688751 
	C158.911057,12.829159 159.928665,11.622811 162.624557,10.958895 
	C174.679581,7.990116 174.204330,7.915254 173.793823,20.872980 
	C173.353912,34.758942 173.822601,48.677872 174.148407,62.576466 
	C174.176315,63.766689 176.109543,64.912254 177.482849,66.428810 
	C179.137558,67.835571 180.320023,69.264580 181.831116,69.861191 
	C184.091751,70.753738 186.722443,70.737526 188.944809,71.692047 
	C192.371353,73.163757 192.315186,75.297470 189.178864,77.383102 
	C187.067688,78.787018 185.061218,80.348373 183.007904,81.839294 
z"/>
<path fill="#09C394" opacity="1.000000" stroke="none" 
	d="
M228.953232,28.874611 
	C236.660202,22.421589 249.798248,25.355967 254.934174,35.227306 
	C260.089111,45.135132 261.631775,55.777271 258.617889,66.751625 
	C256.108185,75.890228 249.009384,83.288483 234.500702,81.547859 
	C237.218170,76.132217 238.155106,71.578171 231.635193,68.430984 
	C231.294586,68.266579 231.205078,67.582016 231.139648,67.040604 
	C230.856506,66.578117 230.432358,66.214653 230.190216,65.572029 
	C231.803207,64.566765 233.214890,63.799213 234.668701,63.122120 
	C239.525177,60.860283 239.793289,58.997063 236.146027,55.289330 
	C235.090942,54.216728 234.776031,52.416000 234.566315,50.966473 
	C238.126205,50.983864 241.241577,50.983864 244.469376,50.983864 
	C244.261658,50.196178 244.084137,49.725227 244.017822,49.239105 
	C243.533783,45.690533 242.469101,41.590984 238.746246,41.464516 
	C236.948807,41.403454 235.002914,45.712109 232.861649,47.896374 
	C232.639908,46.081963 232.172165,44.163094 232.841156,42.803581 
	C233.838303,40.777199 235.860703,39.276619 237.020721,37.301971 
	C237.864075,35.866436 238.803909,33.671932 238.259781,32.465977 
	C237.714066,31.256498 235.428955,30.725050 233.819199,30.132914 
	C232.254623,29.557398 230.579697,29.281872 228.953232,28.874611 
z"/>
<path fill="#0D93A3" opacity="1.000000" stroke="none" 
	d="
M199.122070,137.882782 
	C201.626114,139.844467 202.012909,138.406647 202.012238,136.382629 
	C202.011200,133.219452 202.124374,130.051910 201.994583,126.894218 
	C201.835754,123.029701 203.153473,121.079788 207.980438,122.499588 
	C207.980438,128.490875 208.150513,134.765549 207.814926,141.013062 
	C207.758240,142.068390 205.528244,143.863785 204.292343,143.872345 
	C179.987122,144.040924 155.680344,144.019943 131.374130,143.951065 
	C129.272385,143.945114 127.182793,143.208252 125.069145,143.033432 
	C121.682922,142.753342 118.935738,142.186752 118.935463,137.742111 
	C118.935104,131.915833 120.192116,129.669098 124.621307,129.020172 
	C125.396812,128.906540 126.181786,128.857559 127.374855,128.737061 
	C124.749519,126.937386 119.799431,130.060852 120.086029,124.495331 
	C120.230263,121.694351 122.785011,121.263901 130.317474,122.533180 
	C131.226456,125.168716 132.446091,127.670067 132.895752,130.302933 
	C133.335907,132.880142 132.991577,135.591354 132.991577,138.621170 
	C143.981415,138.621170 154.709747,138.621170 165.438065,138.621170 
	C165.708420,138.248535 165.978790,137.875916 166.249146,137.503281 
	C164.929352,136.761902 163.650696,135.930725 162.279251,135.302032 
	C160.596420,134.530624 158.836014,133.928497 157.109146,133.253174 
	C158.515198,131.863571 159.690308,129.755203 161.369492,129.215698 
	C166.979263,127.413315 171.241928,131.199814 172.406708,138.741867 
	C174.316315,138.741867 176.269073,138.741867 178.242554,138.741867 
	C181.304428,136.323471 175.575912,129.443909 182.056854,129.454605 
	C188.503250,129.465256 197.904373,125.416328 199.122070,137.882782 
M185.071457,137.626190 
	C187.525589,138.217300 189.979706,138.808411 193.876083,139.746887 
	C192.766922,137.202072 192.203125,135.229782 191.876511,135.268295 
	C189.600723,135.536728 187.374069,136.221878 185.071457,137.626190 
z"/>
<path fill="#0D98A0" opacity="1.000000" stroke="none" 
	d="
M20.952335,37.867474 
	C23.158728,36.909103 25.469126,36.129597 27.534468,34.928658 
	C28.881821,34.145206 29.871046,32.747395 31.024935,31.629164 
	C31.797493,30.880476 32.459621,29.731539 33.374966,29.467068 
	C36.945992,28.435284 40.598255,27.684683 45.002728,26.644798 
	C45.002728,31.125311 44.900627,35.033047 45.024166,38.933636 
	C45.274689,46.843540 45.563782,54.754841 46.061012,62.651459 
	C46.134415,63.817265 47.431278,64.906029 48.462761,66.400650 
	C49.935791,68.287422 51.123096,69.792725 52.275513,71.324280 
	C53.110767,72.434341 54.594547,73.629646 54.517197,74.694557 
	C54.437244,75.795273 52.939327,76.935852 51.849995,77.788551 
	C49.987286,79.246628 47.959473,80.493774 46.000999,81.829514 
	C43.365154,81.083618 39.626152,81.177528 38.299538,79.434929 
	C34.260174,74.128967 29.644646,75.749184 24.508430,76.589645 
	C25.163460,75.110748 26.034599,73.932373 27.071218,72.924133 
	C30.749401,69.346695 30.572241,67.524170 26.485079,64.511749 
	C25.412018,63.720860 24.817286,62.280983 24.414085,61.078506 
	C26.812426,60.587273 28.799566,60.156677 30.724874,59.739475 
	C30.724874,56.024178 30.724874,52.689129 30.724874,48.989834 
	C28.913261,49.670273 27.457024,50.217236 25.892315,50.486549 
	C26.686775,48.436523 27.708803,46.712307 28.451565,44.875175 
	C28.962996,43.610222 29.692322,41.887604 29.212160,40.923279 
	C28.745733,39.986538 26.886274,39.683876 25.592913,39.233929 
	C24.071705,38.704712 22.501368,38.316711 20.952335,37.867474 
z"/>
<path fill="#0BAE9A" opacity="1.000000" stroke="none" 
	d="
M132.909302,66.247322 
	C136.026535,65.599571 137.126389,63.681488 137.047333,60.534931 
	C136.884735,54.065010 137.245834,47.575089 136.904297,41.119171 
	C136.711441,37.473297 138.375839,35.911354 141.436523,35.296444 
	C153.589554,32.854858 151.938339,30.736546 151.948685,43.128361 
	C151.955688,51.533440 152.384827,60.084286 151.030991,68.307480 
	C149.331009,78.633057 144.201569,82.000343 133.894272,81.997581 
	C132.234390,81.997139 130.574493,81.976753 128.475433,81.520370 
	C128.120560,80.427948 128.132416,79.761284 128.300323,79.136543 
	C130.119583,72.367607 129.755188,71.856651 123.226357,69.870026 
	C121.673912,69.397644 120.404655,67.994591 119.466377,67.014656 
	C124.254845,66.755569 128.582077,66.501442 132.909302,66.247322 
z"/>
<path fill="#0E94A1" opacity="1.000000" stroke="none" 
	d="
M24.002888,61.139145 
	C24.817286,62.280983 25.412018,63.720860 26.485079,64.511749 
	C30.572241,67.524170 30.749401,69.346695 27.071218,72.924133 
	C26.034599,73.932373 25.163460,75.110748 24.108917,76.527138 
	C22.924608,76.883591 21.847805,76.923981 20.122709,76.769333 
	C18.935144,76.400551 18.395872,76.226791 17.856598,76.053040 
	C8.141417,75.153618 2.513679,66.096481 3.737421,55.942589 
	C4.997845,45.484333 12.080961,41.529480 20.579569,37.922134 
	C22.501368,38.316711 24.071705,38.704712 25.592913,39.233929 
	C26.886274,39.683876 28.745733,39.986538 29.212160,40.923279 
	C29.692322,41.887604 28.962996,43.610222 28.451565,44.875175 
	C27.708803,46.712307 26.686775,48.436523 25.538319,50.591473 
	C24.259327,51.440189 22.954590,51.656429 22.247873,52.423584 
	C20.693050,54.111359 19.440317,56.077427 18.064280,57.929909 
	C20.043816,58.999657 22.023352,60.069401 24.002888,61.139145 
z"/>
<path fill="#0D93A3" opacity="1.000000" stroke="none" 
	d="
M4.619331,140.045441 
	C3.493979,131.777588 4.791199,129.832687 13.178921,128.426102 
	C10.021476,128.113632 8.269385,127.940239 6.262182,127.741600 
	C6.262182,125.935059 6.262182,124.202217 6.262182,122.498886 
	C17.346865,120.979774 17.446928,121.103416 19.383247,138.988388 
	C27.885754,138.988388 36.482311,139.110977 45.065277,138.825211 
	C46.079170,138.791443 47.760883,136.573746 47.856731,135.274277 
	C48.176239,130.942780 50.218849,128.968063 54.465832,129.009521 
	C59.431885,129.057968 61.646442,130.970108 61.988571,135.569839 
	C62.559925,143.251282 59.732811,145.387558 52.122986,144.274521 
	C47.069199,143.535339 41.829426,144.136917 36.677452,143.984528 
	C27.750851,143.720505 18.819567,143.464981 9.910370,142.892639 
	C8.193702,142.782349 6.569396,141.234329 4.619331,140.045441 
z"/>
<path fill="#0D92A2" opacity="1.000000" stroke="none" 
	d="
M99.996902,131.897568 
	C99.996902,128.464386 99.996902,125.503616 99.996902,122.279343 
	C102.032784,122.279343 103.624435,122.279343 105.900673,122.279343 
	C105.900673,128.386047 106.146706,134.495300 105.698265,140.553131 
	C105.605812,141.802048 102.948997,143.812866 101.432053,143.852234 
	C90.461601,144.137100 79.478020,143.876205 68.503700,144.072937 
	C64.406288,144.146393 63.279240,141.901321 63.153240,138.602539 
	C63.000980,134.616302 63.252121,130.613571 63.068874,126.629921 
	C62.877419,122.467758 64.644882,121.221550 68.882935,122.486641 
	C68.882935,127.695099 68.882935,132.966888 68.882935,138.616882 
	C74.178986,138.616882 79.078506,138.616882 83.146172,138.616882 
	C83.146172,136.029556 82.653778,131.051331 83.225822,130.925858 
	C87.030396,130.091324 91.293297,129.433075 94.953697,130.412460 
	C98.363228,131.324707 98.798874,134.992584 97.431717,138.613235 
	C101.645081,137.962143 99.269012,134.449463 99.996902,131.897568 
z"/>
<path fill="#0AC095" opacity="1.000000" stroke="none" 
	d="
M228.636139,29.025629 
	C230.579697,29.281872 232.254623,29.557398 233.819199,30.132914 
	C235.428955,30.725050 237.714066,31.256498 238.259781,32.465977 
	C238.803909,33.671932 237.864075,35.866436 237.020721,37.301971 
	C235.860703,39.276619 233.838303,40.777199 232.841156,42.803581 
	C232.172165,44.163094 232.639908,46.081963 232.819702,48.217545 
	C233.400848,49.439381 233.761322,50.194233 234.121796,50.949081 
	C234.776031,52.416000 235.090942,54.216728 236.146027,55.289330 
	C239.793289,58.997063 239.525177,60.860283 234.668701,63.122120 
	C233.214890,63.799213 231.803207,64.566765 229.949066,65.615601 
	C229.525940,65.938332 229.041962,66.011932 229.041962,66.011932 
	C217.788528,60.304329 215.344101,44.867172 223.982513,33.596275 
	C225.228714,31.970318 226.863876,30.642458 228.636139,29.025629 
z"/>
<path fill="#0D97A1" opacity="1.000000" stroke="none" 
	d="
M17.118799,25.917000 
	C15.995930,25.269464 15.173059,24.703331 14.485457,24.004168 
	C5.632509,15.002373 5.967615,17.962873 14.626790,8.821377 
	C16.727999,6.603130 18.415539,6.499629 20.312624,8.859697 
	C21.866854,10.793235 23.460676,12.694950 26.490570,16.377531 
	C28.700680,13.170116 30.155149,10.963136 31.709257,8.828704 
	C33.577827,6.262381 35.394615,6.748654 37.378788,8.867970 
	C46.280415,18.375898 45.991581,14.730558 37.428608,24.086403 
	C35.104553,26.625647 33.362225,26.342842 31.397789,23.916327 
	C29.936028,22.110722 28.417223,20.351297 26.877512,18.516104 
	C23.311705,21.332237 20.396687,23.634405 17.118799,25.917000 
z"/>
<path fill="#0AC396" opacity="1.000000" stroke="none" 
	d="
M240.300903,17.798450 
	C239.057175,16.238035 238.070740,14.923216 236.850006,13.296103 
	C233.676575,16.735077 231.195572,19.423676 227.883972,23.012377 
	C224.742981,19.062157 220.664520,15.796184 219.531158,11.712790 
	C218.973770,9.704568 223.336334,4.995076 226.417160,3.611484 
	C231.635239,1.268046 232.786163,8.253542 236.933731,9.800112 
	C237.656128,9.243506 238.583603,8.489605 239.551224,7.791311 
	C241.751129,6.203734 244.931747,2.839502 246.002411,3.409863 
	C249.231796,5.130229 252.943680,7.924722 254.082733,11.144135 
	C255.986343,16.524569 248.976074,17.315649 246.854813,20.929510 
	C246.582733,21.393042 244.219864,20.966621 243.040283,20.456247 
	C242.050354,20.027939 241.373627,18.875744 240.300903,17.798450 
z"/>
<path fill="#0D9F9F" opacity="1.000000" stroke="none" 
	d="
M46.465836,81.893501 
	C47.959473,80.493774 49.987286,79.246628 51.849995,77.788551 
	C52.939327,76.935852 54.437244,75.795273 54.517197,74.694557 
	C54.594547,73.629646 53.110767,72.434341 52.275513,71.324280 
	C51.123096,69.792725 49.935791,68.287422 48.863274,66.485954 
	C49.423046,66.147926 49.882977,66.094810 51.062962,66.262726 
	C59.522526,66.660606 67.262039,66.837471 75.111084,67.337357 
	C76.860268,68.976967 78.401451,70.447243 80.161957,71.575203 
	C83.020226,73.406509 83.305275,75.053871 80.569450,77.341064 
	C79.133316,78.541702 78.175507,80.314476 77.001686,81.828880 
	C66.978012,81.871750 56.954342,81.914619 46.465836,81.893501 
z"/>
<path fill="#0BAD9B" opacity="1.000000" stroke="none" 
	d="
M146.721313,84.413589 
	C147.193588,85.099304 147.363663,85.620239 147.722702,85.882286 
	C157.604004,93.094543 154.865768,93.955246 146.911560,101.143791 
	C146.115692,101.863045 143.376205,101.415298 142.245361,100.567101 
	C140.155258,98.999390 138.588791,96.733559 137.078262,95.061829 
	C136.076401,95.213692 135.637650,95.144020 135.470703,95.325043 
	C127.487991,103.979996 126.237762,103.966148 119.195488,94.522881 
	C118.627251,93.760918 118.875359,91.540352 119.581390,90.831238 
	C122.078255,88.323517 124.939125,86.178238 128.118668,83.512726 
	C128.766235,84.089928 130.319016,85.470901 131.868271,86.855797 
	C133.323746,88.156853 134.775513,89.462059 137.015549,91.470871 
	C138.848511,89.301277 140.482330,86.985741 142.528259,85.122787 
	C143.418396,84.312241 145.155014,84.431290 146.721313,84.413589 
z"/>
<path fill="#0ABB97" opacity="1.000000" stroke="none" 
	d="
M183.472046,81.903870 
	C185.061218,80.348373 187.067688,78.787018 189.178864,77.383102 
	C192.315186,75.297470 192.371353,73.163757 188.944809,71.692047 
	C186.722443,70.737526 184.091751,70.753738 181.831116,69.861191 
	C180.320023,69.264580 179.137558,67.835571 177.894104,66.494507 
	C178.166718,66.169731 178.353287,66.129509 179.186188,66.325516 
	C188.226135,66.758484 196.619797,66.955223 205.212723,67.437469 
	C208.378189,68.621613 211.459015,69.263496 214.266739,70.517044 
	C215.900833,71.246597 218.051666,72.851318 218.206726,74.256805 
	C218.345901,75.518181 216.254730,77.276726 214.820114,78.396591 
	C213.058960,79.771347 210.957779,80.710495 209.003571,81.837936 
	C200.647766,81.881432 192.291977,81.924934 183.472046,81.903870 
z"/>
<path fill="#0CA49D" opacity="1.000000" stroke="none" 
	d="
M77.466171,81.894653 
	C78.175507,80.314476 79.133316,78.541702 80.569450,77.341064 
	C83.305275,75.053871 83.020226,73.406509 80.161957,71.575203 
	C78.401451,70.447243 76.860268,68.976967 75.579521,67.333984 
	C83.293915,67.011444 90.649399,67.015320 98.081612,67.363297 
	C99.410973,68.593361 100.928818,69.265251 101.856003,70.413910 
	C103.362457,72.280212 104.899773,74.323486 105.621162,76.551971 
	C106.117592,78.085503 105.256424,80.058510 105.002029,81.835091 
	C95.978241,81.876869 86.954445,81.918648 77.466171,81.894653 
z"/>
<path fill="#0CA99C" opacity="1.000000" stroke="none" 
	d="
M105.466461,81.900833 
	C105.256424,80.058510 106.117592,78.085503 105.621162,76.551971 
	C104.899773,74.323486 103.362457,72.280212 101.856003,70.413910 
	C100.928818,69.265251 99.410973,68.593361 98.549591,67.359039 
	C105.628937,67.013657 112.317039,67.016640 119.005142,67.019615 
	C120.404655,67.994591 121.673912,69.397644 123.226357,69.870026 
	C129.755188,71.856651 130.119583,72.367607 128.300323,79.136543 
	C128.132416,79.761284 128.120560,80.427948 128.019379,81.454323 
	C120.645309,81.877853 113.288094,81.922211 105.466461,81.900833 
z"/>
<path fill="#0AC096" opacity="1.000000" stroke="none" 
	d="
M209.467804,81.904358 
	C210.957779,80.710495 213.058960,79.771347 214.820114,78.396591 
	C216.254730,77.276726 218.345901,75.518181 218.206726,74.256805 
	C218.051666,72.851318 215.900833,71.246597 214.266739,70.517044 
	C211.459015,69.263496 208.378189,68.621613 205.679413,67.406487 
	C214.297424,67.106537 222.648041,67.123077 230.998657,67.139618 
	C231.205078,67.582016 231.294586,68.266579 231.635193,68.430984 
	C238.155106,71.578171 237.218170,76.132217 234.051575,81.480392 
	C225.979385,81.880508 217.955704,81.925644 209.467804,81.904358 
z"/>
<path fill="#0C94A4" opacity="1.000000" stroke="none" 
	d="
M229.513855,128.974548 
	C229.870483,130.873535 229.946671,132.801819 229.791275,134.711273 
	C229.382889,139.728806 231.157562,142.047318 236.119965,141.938568 
	C244.729691,141.749863 253.344711,140.764404 261.934753,140.987961 
	C271.816772,141.245132 281.674103,142.452164 291.769531,143.541260 
	C286.994476,143.892960 281.992035,143.950027 276.241516,144.018768 
	C274.747314,144.146530 274.001221,144.262634 273.255096,144.378738 
	C273.272125,144.576187 273.289185,144.773651 273.306213,144.971100 
	C274.222321,144.971100 275.138397,144.971100 276.054504,144.971100 
	C276.875488,146.366684 277.696503,147.762268 278.887756,149.787201 
	C274.227844,149.787201 270.843506,149.787201 267.247955,149.787201 
	C267.247955,148.235901 267.247955,146.824539 267.790588,145.180328 
	C268.602051,144.743317 268.870819,144.539139 269.139618,144.334946 
	C268.739502,144.231537 268.339355,144.128128 267.939240,144.024750 
	C257.009430,144.016602 246.058884,144.398483 235.159500,143.818573 
	C230.449646,143.567963 224.779587,144.732864 221.306229,139.663910 
	C221.135925,139.415375 221.136368,139.049820 221.514236,138.370148 
	C223.891190,137.655457 225.811234,137.309402 227.518799,137.001633 
	C225.542374,134.356537 224.248871,132.625443 222.955383,130.894348 
	C225.012878,130.261322 227.070374,129.628296 229.513855,128.974548 
M272.523071,148.494934 
	C272.523071,148.494934 272.487030,148.506302 272.523071,148.494934 
z"/>
<path fill="#0E94A3" opacity="1.000000" stroke="none" 
	d="
M109.999100,143.993683 
	C108.700867,143.280167 107.157425,142.588730 107.135345,141.851700 
	C106.943527,135.449448 107.024734,129.039032 107.024734,122.317398 
	C109.085426,122.186241 110.669380,122.085426 112.935448,121.941193 
	C112.935448,128.924500 112.995422,135.634384 112.828049,142.338577 
	C112.813789,142.909943 111.284668,143.443497 109.999100,143.993683 
z"/>
<path fill="#0C909F" opacity="1.000000" stroke="none" 
	d="
M209.980133,138.825775 
	C209.980209,133.084442 209.980209,127.824669 209.980209,122.531227 
	C214.400497,121.214973 216.120529,122.535103 215.953217,126.870499 
	C215.743835,132.295547 215.902863,137.734802 215.902863,143.713120 
	C213.935684,143.815292 212.250809,143.902802 210.255157,144.006439 
	C210.149338,142.198959 210.064697,140.753143 209.980133,138.825775 
z"/>
<path fill="#009999" opacity="1.000000" stroke="none" 
	d="
M119.466377,67.014656 
	C112.317039,67.016640 105.628937,67.013657 98.472855,67.014938 
	C90.649399,67.015320 83.293915,67.011444 75.469986,67.010956 
	C67.262039,66.837471 59.522526,66.660606 51.406517,66.325294 
	C78.021301,66.138649 105.012589,66.110458 132.456589,66.164795 
	C128.582077,66.501442 124.254845,66.755569 119.466377,67.014656 
z"/>
<path fill="#0D91A1" opacity="1.000000" stroke="none" 
	d="
M262.894165,131.679779 
	C261.687836,131.483215 260.532257,130.963913 259.171753,130.191406 
	C255.541519,129.082001 255.195618,126.224152 256.392578,124.023384 
	C257.225464,122.492027 259.849365,121.634483 261.834473,121.179520 
	C262.616638,121.000252 264.677826,122.728371 264.682648,123.596191 
	C264.692719,125.395729 263.669464,127.187820 263.168915,129.009857 
	C262.963837,129.756424 263.011963,130.572571 262.894165,131.679779 
z"/>
<path fill="#0AB396" opacity="1.000000" stroke="none" 
	d="
M231.139648,67.040604 
	C222.648041,67.123077 214.297424,67.106537 205.480133,67.120979 
	C196.619797,66.955223 188.226135,66.758484 179.458771,66.413040 
	C195.424591,66.213310 211.764160,66.162292 228.572845,66.061607 
	C229.041962,66.011932 229.525940,65.938332 229.767075,65.894760 
	C230.432358,66.214653 230.856506,66.578117 231.139648,67.040604 
z"/>
<path fill="#0D92A3" opacity="1.000000" stroke="none" 
	d="
M222.633026,131.096039 
	C224.248871,132.625443 225.542374,134.356537 227.518799,137.001633 
	C225.811234,137.309402 223.891190,137.655457 221.570038,138.002960 
	C221.549484,135.768860 221.930084,133.533279 222.633026,131.096039 
z"/>
<path fill="#0D93A3" opacity="1.000000" stroke="none" 
	d="
M23.883615,167.527863 
	C23.549469,164.597168 23.289688,161.221527 23.039616,157.394135 
	C23.352211,160.322556 23.655096,163.702744 23.883615,167.527863 
z"/>
<path fill="#0D91A1" opacity="1.000000" stroke="none" 
	d="
M174.634888,156.674683 
	C173.439056,157.240021 172.101135,157.474594 170.449875,157.842926 
	C171.588638,157.432434 173.040710,156.888184 174.634888,156.674683 
z"/>
<path fill="#0D93A3" opacity="1.000000" stroke="none" 
	d="
M18.723515,158.061844 
	C18.394888,158.402740 17.815933,158.871368 17.142374,159.131393 
	C17.522909,158.678391 17.998047,158.433990 18.723515,158.061844 
z"/>
<path fill="#0D92A3" opacity="1.000000" stroke="none" 
	d="
M276.011658,144.734283 
	C275.138397,144.971100 274.222321,144.971100 273.306213,144.971100 
	C273.289185,144.773651 273.272125,144.576187 273.255096,144.378738 
	C274.001221,144.262634 274.747314,144.146530 275.778748,144.028046 
	C276.064026,144.025650 275.968842,144.497467 276.011658,144.734283 
z"/>
<path fill="#0D93A3" opacity="1.000000" stroke="none" 
	d="
M27.568581,169.934418 
	C26.822889,169.997040 25.682114,170.114563 24.286652,170.053894 
	C25.079140,169.913574 26.126318,169.951447 27.568581,169.934418 
z"/>
<path fill="#0D93A3" opacity="1.000000" stroke="none" 
	d="
M22.881132,156.655243 
	C22.022310,156.967697 20.985249,156.983734 19.559223,157.000946 
	C20.347801,156.787689 21.525347,156.573257 22.881132,156.655243 
z"/>
<path fill="#0D92A3" opacity="1.000000" stroke="none" 
	d="
M267.983948,144.260544 
	C268.339355,144.128128 268.739502,144.231537 269.139618,144.334946 
	C268.870819,144.539139 268.602051,144.743317 268.133209,144.957123 
	C267.933167,144.966766 268.028687,144.496353 267.983948,144.260544 
z"/>
<path fill="#0C92A3" opacity="1.000000" stroke="none" 
	d="
M278.946106,156.651413 
	C278.573242,156.761658 278.048370,156.604706 277.281860,156.316254 
	C277.624847,156.251236 278.209442,156.317734 278.946106,156.651413 
z"/>
<path fill="#0D93A3" opacity="1.000000" stroke="none" 
	d="
M32.712524,156.723419 
	C32.327625,156.820496 31.885340,156.638336 31.243912,156.322464 
	C31.581560,156.273911 32.118351,156.359055 32.712524,156.723419 
z"/>
<path fill="#0D98A0" opacity="1.000000" stroke="none" 
	d="
M18.003162,76.337944 
	C18.395872,76.226791 18.935144,76.400551 19.721127,76.715698 
	C19.361799,76.779007 18.755762,76.700935 18.003162,76.337944 
z"/>
<path fill="#0C92A3" opacity="1.000000" stroke="none" 
	d="
M273.737610,161.983826 
	C273.688293,162.029633 273.401367,162.122177 273.069519,162.076263 
	C273.024597,161.937775 273.499969,162.030548 273.737610,161.983826 
z"/>
<path fill="#0D93A3" opacity="1.000000" stroke="none" 
	d="
M32.253983,171.987396 
	C32.176403,171.837753 32.336773,171.599625 32.650867,171.206497 
	C32.907894,171.405579 32.803673,171.688065 32.253983,171.987396 
z"/>
<path fill="#0D91A1" opacity="1.000000" stroke="none" 
	d="
M165.811691,157.729782 
	C165.611267,157.760483 165.434326,157.535309 165.156586,157.118286 
	C165.389679,156.994629 165.649475,157.177109 165.811691,157.729782 
z"/>
<path fill="#0D93A3" opacity="1.000000" stroke="none" 
	d="
M28.726709,156.157837 
	C28.809298,156.377289 28.633631,156.558838 28.299381,156.849213 
	C28.012360,156.593246 28.121576,156.313858 28.726709,156.157837 
z"/>
<path fill="#000000" opacity="1.000000" stroke="none" 
	d="
M284.130951,66.009949 
	C281.130493,66.251251 279.245575,65.741631 279.943939,62.567158 
	C280.737152,58.961590 281.100769,55.137733 282.606171,51.845482 
	C284.301300,48.138458 287.743927,47.965237 289.643463,51.537483 
	C291.872742,55.729870 293.072876,60.469505 295.101013,66.015503 
	C290.761108,66.015503 287.682037,66.015503 284.130951,66.009949 
z"/>
<path fill="#0D93A3" opacity="1.000000" stroke="none" 
	d="
M18.050692,165.842743 
	C17.917509,166.042389 17.476858,166.025986 17.259773,166.064178 
	C17.339201,165.458466 17.635714,164.814545 17.932228,164.170624 
	C18.016109,164.661438 18.099993,165.152267 18.050692,165.842743 
z"/>
<path fill="#000000" opacity="1.000000" stroke="none" 
	d="
M252.262085,169.128876 
	C250.660965,168.827179 248.242828,168.218582 248.251236,167.645569 
	C248.282852,165.489777 249.105057,163.345596 249.631134,161.197067 
	C250.483521,161.688614 251.936584,162.050140 252.076355,162.695938 
	C252.506943,164.685013 252.435562,166.782776 252.262085,169.128876 
z"/>
<path fill="#000000" opacity="1.000000" stroke="none" 
	d="
M234.566315,50.966473 
	C233.761322,50.194233 233.400848,49.439381 233.082306,48.363358 
	C235.002914,45.712109 236.948807,41.403454 238.746246,41.464516 
	C242.469101,41.590984 243.533783,45.690533 244.017822,49.239105 
	C244.084137,49.725227 244.261658,50.196178 244.469376,50.983864 
	C241.241577,50.983864 238.126205,50.983864 234.566315,50.966473 
z"/>
<path fill="#000000" opacity="1.000000" stroke="none" 
	d="
M185.101562,137.199829 
	C187.374069,136.221878 189.600723,135.536728 191.876511,135.268295 
	C192.203125,135.229782 192.766922,137.202072 193.876083,139.746887 
	C189.979706,138.808411 187.525589,138.217300 185.101562,137.199829 
z"/>
<path fill="#000000" opacity="1.000000" stroke="none" 
	d="
M24.414085,61.078506 
	C22.023352,60.069401 20.043816,58.999657 18.064280,57.929909 
	C19.440317,56.077427 20.693050,54.111359 22.247873,52.423584 
	C22.954590,51.656429 24.259327,51.440189 25.646791,50.869125 
	C27.457024,50.217236 28.913261,49.670273 30.724874,48.989834 
	C30.724874,52.689129 30.724874,56.024178 30.724874,59.739475 
	C28.799566,60.156677 26.812426,60.587273 24.414085,61.078506 
z"/>
<path fill="#0D92A3" opacity="1.000000" stroke="none" 
	d="
M272.505066,148.500610 
	C272.487030,148.506302 272.523071,148.494934 272.505066,148.500610 
z"/>
</svg>